<svg width="20" height="20" viewBox="0 0 20 20" fill="none" xmlns="http://www.w3.org/2000/svg">
<path d="M3.25 4.375C3.25 3.28098 3.6846 2.23177 4.45818 1.45818C5.23177 0.684597 6.28098 0.25 7.375 0.25C8.46902 0.25 9.51823 0.684597 10.2918 1.45818C11.0654 2.23177 11.5 3.28098 11.5 4.375C11.5 5.46902 11.0654 6.51823 10.2918 7.29182C9.51823 8.0654 8.46902 8.5 7.375 8.5C6.28098 8.5 5.23177 8.0654 4.45818 7.29182C3.6846 6.51823 3.25 5.46902 3.25 4.375ZM0.25 17.125C0.25 15.2353 1.00067 13.4231 2.33686 12.0869C3.67306 10.7507 5.48533 10 7.375 10C9.26467 10 11.0769 10.7507 12.4131 12.0869C13.7493 13.4231 14.5 15.2353 14.5 17.125V17.128L14.499 17.247C14.4969 17.3742 14.4624 17.4987 14.3989 17.6089C14.3354 17.7191 14.245 17.8114 14.136 17.877C12.0952 19.106 9.75727 19.7536 7.375 19.75C4.903 19.75 2.589 19.066 0.615 17.877C0.505851 17.8115 0.415167 17.7193 0.351487 17.6091C0.287806 17.4989 0.253225 17.3743 0.251 17.247L0.25 17.125ZM16.75 5.5C16.75 5.30109 16.671 5.11032 16.5303 4.96967C16.3897 4.82902 16.1989 4.75 16 4.75C15.8011 4.75 15.6103 4.82902 15.4697 4.96967C15.329 5.11032 15.25 5.30109 15.25 5.5V7.75H13C12.8011 7.75 12.6103 7.82902 12.4697 7.96967C12.329 8.11032 12.25 8.30109 12.25 8.5C12.25 8.69891 12.329 8.88968 12.4697 9.03033C12.6103 9.17098 12.8011 9.25 13 9.25H15.25V11.5C15.25 11.6989 15.329 11.8897 15.4697 12.0303C15.6103 12.171 15.8011 12.25 16 12.25C16.1989 12.25 16.3897 12.171 16.5303 12.0303C16.671 11.8897 16.75 11.6989 16.75 11.5V9.25H19C19.1989 9.25 19.3897 9.17098 19.5303 9.03033C19.671 8.88968 19.75 8.69891 19.75 8.5C19.75 8.30109 19.671 8.11032 19.5303 7.96967C19.3897 7.82902 19.1989 7.75 19 7.75H16.75V5.5Z" fill="url(#paint0_linear_6_3)"/>
<defs>
<linearGradient id="paint0_linear_6_3" x1="10" y1="0.25" x2="10" y2="19.75" gradientUnits="userSpaceOnUse">
<stop stop-color="#3BA31B"/>
<stop offset="0.655" stop-color="#338D18"/>
<stop offset="1" stop-color="#163D0A"/>
</linearGradient>
</defs>
</svg>
