<svg width="207" height="130" viewBox="0 0 207 130" fill="none" xmlns="http://www.w3.org/2000/svg">
<path fill-rule="evenodd" clip-rule="evenodd" d="M2.98501 3.10458C4.37368 1.74104 6.25609 0.975159 8.21876 0.975159C10.1814 0.975159 12.0638 1.74104 13.4525 3.10458L74.875 63.4904L111.966 27.0259C113.233 25.7799 114.918 25.0282 116.707 24.9103C118.495 24.7925 120.267 25.3165 121.692 26.3852C143.818 42.9563 159.71 66.2892 166.871 92.7125L169.912 103.867L192.397 65.5874C192.88 64.7527 193.526 64.02 194.298 63.4317C195.07 62.8433 195.953 62.4109 196.895 62.1593C197.838 61.9077 198.822 61.8419 199.79 61.9657C200.759 62.0895 201.693 62.4004 202.539 62.8805C203.385 63.3607 204.126 64.0005 204.719 64.7633C205.312 65.5261 205.746 66.3968 205.996 67.3251C206.246 68.2535 206.306 69.2212 206.174 70.1726C206.041 71.124 205.719 72.0403 205.225 72.8687L173.803 126.362C173.317 127.191 172.669 127.917 171.898 128.5C171.126 129.083 170.245 129.511 169.305 129.759C168.365 130.007 167.384 130.07 166.419 129.945C165.454 129.821 164.524 129.51 163.681 129.031L109.26 98.1492C107.557 97.1836 106.315 95.5928 105.806 93.7266C105.296 91.8604 105.562 89.8718 106.544 88.1981C107.526 86.5245 109.144 85.303 111.043 84.8023C112.941 84.3016 114.964 84.5628 116.666 85.5283L155.603 107.634L152.562 96.4793C146.819 75.2593 134.673 56.2472 117.723 41.9476L80.1088 78.9364C78.7201 80.2999 76.8377 81.0658 74.875 81.0658C72.9123 81.0658 71.0299 80.2999 69.6413 78.9364L2.98501 13.3954C2.29677 12.7192 1.7508 11.9163 1.37831 11.0326C1.00581 10.1489 0.814087 9.20173 0.814087 8.24515C0.814087 7.28857 1.00581 6.34136 1.37831 5.45766C1.7508 4.57395 2.29677 3.78077 2.98501 3.10458Z" fill="#0EA33A"/>
</svg>
