<svg width="100" height="125" viewBox="0 0 100 125" fill="none" xmlns="http://www.w3.org/2000/svg">
<path d="M87.9394 67.3604C86.5555 67.3604 85.2834 67.8382 84.2701 68.6318L80.081 65.1748V60.0709C84.9697 57.4708 88.6523 54.2245 90.5663 50.5454L90.9257 49.853L90.5663 49.1606C88.6523 45.4815 84.9697 42.2354 80.081 39.6353V35.1948L84.2701 31.7378C85.2834 32.5314 86.5555 33.0093 87.9394 33.0093C91.2294 33.0093 93.9052 30.3325 93.9052 27.0425C93.9052 23.7524 91.2294 21.0757 87.9394 21.0757C84.6494 21.0757 81.9726 23.7524 81.9726 27.0425C81.9726 27.8632 82.1394 28.6456 82.4405 29.3579L77.081 33.7808V38.1852C73.7704 36.7362 70.0352 35.5552 66.0078 34.6901V30.1226L72.04 25.144V20.6232C74.605 19.9554 76.5068 17.6262 76.5068 14.855C76.5068 11.5649 73.83 8.88867 70.54 8.88867C67.2499 8.88867 64.5742 11.5649 64.5742 14.855C64.5742 17.6262 66.4752 19.9553 69.04 20.6232V23.73L63.0078 28.7085V34.1141C59.3433 33.492 55.479 33.1248 51.4999 33.051V14.3347C54.0649 13.6669 55.9667 11.3381 55.9667 8.56689C55.9667 5.27686 53.29 2.6001 49.9999 2.6001C46.7099 2.6001 44.0331 5.27686 44.0331 8.56689C44.0331 11.3381 45.9349 13.6669 48.4999 14.3347V33.051C44.3226 33.1285 40.269 33.5261 36.4433 34.2059V28.7085L30.4101 23.73V20.6232C32.9751 19.9554 34.8769 17.6262 34.8769 14.855C34.8769 11.5649 32.2001 8.88867 28.9101 8.88867C25.6201 8.88867 22.9433 11.5649 22.9433 14.855C22.9433 17.6262 24.8451 19.9554 27.4101 20.6232V25.144L33.4433 30.1226V34.8083C29.6245 35.6616 26.079 36.8024 22.9189 38.1855V33.7808L17.5602 29.3585C17.8615 28.6461 18.0283 27.8634 18.0283 27.0425C18.0283 23.7524 15.3515 21.0757 12.0615 21.0757C8.77142 21.0757 6.09467 23.7524 6.09467 27.0425C6.09467 30.3325 8.77142 33.0093 12.0615 33.0093C13.4451 33.0093 14.7169 32.5316 15.7302 31.7382L19.9189 35.1948V39.6358C15.0308 42.2357 11.3484 45.4818 9.43451 49.1606L9.07513 49.853L9.43451 50.5454C11.3484 54.2243 15.0308 57.4703 19.9189 60.0704V65.1748L15.7302 68.6315C14.7169 67.8381 13.4451 67.3604 12.0615 67.3604C8.77142 67.3604 6.09467 70.0371 6.09467 73.3271C6.09467 76.6172 8.77142 79.2939 12.0615 79.2939C15.3515 79.2939 18.0283 76.6172 18.0283 73.3271C18.0283 72.5065 17.8615 71.7241 17.5604 71.0117L22.9189 66.5889V61.5208C26.079 62.904 29.6245 64.0448 33.4433 64.8981V70.2471L27.4101 75.2256V79.7464C24.8451 80.4142 22.9433 82.7435 22.9433 85.5146C22.9433 88.8047 25.6201 91.4814 28.9101 91.4814C32.2001 91.4814 34.8769 88.8047 34.8769 85.5146C34.8769 82.7435 32.9751 80.4142 30.4101 79.7464V76.6396L36.4433 71.6611V65.5006C40.269 66.1805 44.3226 66.5781 48.4999 66.6555V86.0355C45.9349 86.7033 44.0331 89.0325 44.0331 91.8037C44.0331 95.0938 46.7099 97.7695 49.9999 97.7695C53.29 97.7695 55.9667 95.0938 55.9667 91.8037C55.9667 89.0325 54.0649 86.7033 51.4999 86.0355V66.6555C55.479 66.5817 59.3433 66.2145 63.0078 65.5924V71.6611L69.04 76.6396V79.7464C66.4752 80.4144 64.5742 82.7435 64.5742 85.5146C64.5742 88.8047 67.2499 91.4814 70.54 91.4814C73.83 91.4814 76.5068 88.8047 76.5068 85.5146C76.5068 82.7435 74.605 80.4142 72.04 79.7464V75.2256L66.0078 70.2471V65.0163C70.0352 64.1512 73.7704 62.9701 77.081 61.5211V66.5889L82.4402 71.0123C82.1393 71.7245 81.9726 72.5067 81.9726 73.3271C81.9726 76.6172 84.6494 79.2939 87.9394 79.2939C91.2294 79.2939 93.9052 76.6172 93.9052 73.3271C93.9052 70.0371 91.2294 67.3604 87.9394 67.3604ZM87.9394 24.0757C89.5751 24.0757 90.9052 25.4067 90.9052 27.0425C90.9052 28.6782 89.5751 30.0093 87.9394 30.0093C86.3036 30.0093 84.9726 28.6782 84.9726 27.0425C84.9726 25.4067 86.3036 24.0757 87.9394 24.0757ZM67.5742 14.855C67.5742 13.2192 68.9042 11.8887 70.54 11.8887C72.1757 11.8887 73.5068 13.2192 73.5068 14.855C73.5068 16.4907 72.1757 17.8218 70.54 17.8218C68.9042 17.8218 67.5742 16.4907 67.5742 14.855ZM25.9433 14.855C25.9433 13.2192 27.2744 11.8887 28.9101 11.8887C30.5458 11.8887 31.8769 13.2192 31.8769 14.855C31.8769 16.4907 30.5458 17.8218 28.9101 17.8218C27.2744 17.8218 25.9433 16.4907 25.9433 14.855ZM12.0615 30.0093C10.4257 30.0093 9.09467 28.6782 9.09467 27.0425C9.09467 25.4067 10.4257 24.0757 12.0615 24.0757C13.6972 24.0757 15.0283 25.4067 15.0283 27.0425C15.0283 28.6782 13.6972 30.0093 12.0615 30.0093ZM12.0615 76.2939C10.4257 76.2939 9.09467 74.9629 9.09467 73.3271C9.09467 71.6914 10.4257 70.3604 12.0615 70.3604C13.6972 70.3604 15.0283 71.6914 15.0283 73.3271C15.0283 74.9629 13.6972 76.2939 12.0615 76.2939ZM31.8769 85.5146C31.8769 87.1504 30.5458 88.4814 28.9101 88.4814C27.2744 88.4814 25.9433 87.1504 25.9433 85.5146C25.9433 83.8789 27.2744 82.5479 28.9101 82.5479C30.5458 82.5479 31.8769 83.8789 31.8769 85.5146ZM73.5068 85.5146C73.5068 87.1504 72.1757 88.4814 70.54 88.4814C68.9042 88.4814 67.5742 87.1504 67.5742 85.5146C67.5742 83.8789 68.9042 82.5479 70.54 82.5479C72.1757 82.5479 73.5068 83.8789 73.5068 85.5146ZM87.5165 49.853C83.3172 56.8479 71.5571 61.9887 57.3538 63.3259C62.1161 60.7159 65.3535 55.6562 65.3535 49.853C65.3535 44.0502 62.1165 38.991 57.3548 36.3807C71.5576 37.7181 83.3173 42.8587 87.5165 49.853ZM62.3535 49.853C62.3535 56.665 56.8115 62.207 49.9999 62.207C43.1884 62.207 37.6464 56.665 37.6464 49.853C37.6464 43.041 43.1884 37.499 49.9999 37.499C56.8115 37.499 62.3535 43.041 62.3535 49.853ZM47.0331 8.56689C47.0331 6.93115 48.3642 5.6001 49.9999 5.6001C51.6357 5.6001 52.9667 6.93115 52.9667 8.56689C52.9667 10.2026 51.6357 11.5332 49.9999 11.5332C48.3642 11.5332 47.0331 10.2026 47.0331 8.56689ZM12.4843 49.853C16.6836 42.8587 28.4425 37.7181 42.6451 36.3807C37.8834 38.991 34.6464 44.0502 34.6464 49.853C34.6464 55.6562 37.8838 60.7159 42.6461 63.3259C28.4431 61.9886 16.6837 56.8479 12.4843 49.853ZM52.9667 91.8037C52.9667 93.4395 51.6357 94.7695 49.9999 94.7695C48.3642 94.7695 47.0331 93.4395 47.0331 91.8037C47.0331 90.168 48.3642 88.8369 49.9999 88.8369C51.6357 88.8369 52.9667 90.168 52.9667 91.8037ZM87.9394 76.2939C86.3036 76.2939 84.9726 74.9629 84.9726 73.3271C84.9726 71.6914 86.3036 70.3604 87.9394 70.3604C89.5751 70.3604 90.9052 71.6914 90.9052 73.3271C90.9052 74.9629 89.5751 76.2939 87.9394 76.2939Z" fill="#575757"/>
<path d="M55.1021 51.9664C56.2693 49.1486 54.9312 45.9181 52.1133 44.7509C49.2955 43.5838 46.0651 44.9219 44.8979 47.7397C43.7307 50.5575 45.0688 53.788 47.8866 54.9551C50.7044 56.1223 53.9349 54.7842 55.1021 51.9664Z" fill="#B9BAB9"/>
</svg>
