<svg xmlns="http://www.w3.org/2000/svg" data-name="Слой 1" viewBox="0 0 100 125" x="0px" y="0px"><path d="M87.9393623,67.3603516c-1.3839111,0-2.6559448,.4778442-3.6692505,1.2714844l-4.1891479-3.4570312v-5.1038818c4.8886719-2.6001587,8.5713501-5.8463745,10.4853516-9.5255127l.359375-.6923828-.359375-.6923828c-1.9140015-3.6791382-5.5966797-6.925293-10.4853516-9.5253296v-4.4404907l4.1891479-3.4570312c1.0133057,.7936401,2.2853394,1.2714844,3.6692505,1.2714844,3.2900391,0,5.9658203-2.6767578,5.9658203-5.9667969s-2.6757812-5.9667969-5.9658203-5.9667969-5.9667969,2.6767578-5.9667969,5.9667969c0,.8206787,.1668091,1.6030884,.4678955,2.3154297l-5.3594971,4.4228516v4.4044189c-3.3106079-1.4489746-7.0458374-2.6300049-11.0732422-3.4950562v-4.5675659l6.0322266-4.9785156v-4.520813c2.5650024-.6678467,4.4667969-2.9970703,4.4667969-5.7682495,0-3.2900391-2.6767578-5.9663086-5.9667969-5.9663086s-5.9658203,2.6762695-5.9658203,5.9663086c0,2.7711792,1.901001,5.1002808,4.4658203,5.7682495v3.1067505l-6.0322266,4.9785156v5.4055786c-3.6644897-.6220703-7.5287476-.9893188-11.5078125-1.0630493V14.3347168c2.5650024-.6677856,4.4667969-2.9966431,4.4667969-5.7678223,0-3.2900391-2.6767578-5.9667969-5.9667969-5.9667969s-5.9667969,2.6767578-5.9667969,5.9667969c0,2.7711792,1.9017944,5.1000366,4.4667969,5.7678223v18.7163086c-4.1773071,.0774536-8.230896,.4750366-12.0566406,1.1548462v-5.4973755l-6.0332031-4.9785156v-3.1067505c2.5650024-.6678467,4.4667969-2.9970703,4.4667969-5.7682495,0-3.2900391-2.6767578-5.9663086-5.9667969-5.9663086s-5.9667969,2.6762695-5.9667969,5.9663086c0,2.7711792,1.9017944,5.1004028,4.4667969,5.7682495v4.520813l6.0332031,4.9785156v4.68573c-3.8187866,.8532715-7.3642578,1.9940796-10.5244141,3.3772583v-4.4047852l-5.3587036-4.4222412c.3012695-.7124634,.4680786-1.4951172,.4680786-2.31604,0-3.2900391-2.6767578-5.9667969-5.9667969-5.9667969s-5.9667969,2.6767578-5.9667969,5.9667969,2.6767578,5.9667969,5.9667969,5.9667969c1.383667,0,2.6554565-.4777222,3.6687012-1.2711182l4.1887207,3.456665v4.440979c-4.8881226,2.5999146-8.5704956,5.8459473-10.484375,9.5248413l-.359375,.6923828,.359375,.6923828c1.9138794,3.678894,5.5962524,6.9249268,10.484375,9.5249634v5.1044312l-4.1887207,3.456665c-1.0132446-.793396-2.2850342-1.2711182-3.6687012-1.2711182-3.2900391,0-5.9667969,2.6767578-5.9667969,5.9667969s2.6767578,5.9667969,5.9667969,5.9667969,5.9667969-2.6767578,5.9667969-5.9667969c0-.8206787-.1668091-1.6030884-.4678955-2.3154297l5.3585205-4.4228516v-5.0681152c3.1601562,1.3832397,6.7056274,2.5240479,10.5244141,3.3773804v5.348938l-6.0332031,4.9785156v4.520813c-2.5650024,.6678467-4.4667969,2.9970703-4.4667969,5.7682495,0,3.2900391,2.6767578,5.9667969,5.9667969,5.9667969s5.9667969-2.6767578,5.9667969-5.9667969c0-2.7711792-1.9017944-5.1004028-4.4667969-5.7682495v-3.1067505l6.0332031-4.9785156v-6.1605225c3.8257446,.6798706,7.8793335,1.0774536,12.0566406,1.1549072v19.3799438c-2.5650024,.6678467-4.4667969,2.9970703-4.4667969,5.7682495,0,3.2900391,2.6767578,5.9658203,5.9667969,5.9658203s5.9667969-2.6757812,5.9667969-5.9658203c0-2.7711792-1.9017944-5.1004028-4.4667969-5.7682495v-19.3799438c3.9790649-.0737915,7.8433228-.440979,11.5078125-1.0631104v6.0687256l6.0322266,4.9785156v3.1067505c-2.5648193,.6679688-4.4658203,2.9970703-4.4658203,5.7682495,0,3.2900391,2.6757812,5.9667969,5.9658203,5.9667969s5.9667969-2.6767578,5.9667969-5.9667969c0-2.7711792-1.9017944-5.1004028-4.4667969-5.7682495v-4.520813l-6.0322266-4.9785156v-5.2307739c4.0274048-.8651123,7.7626343-2.0462036,11.0732422-3.4951782v5.067749l5.3592529,4.4234619c-.3009033,.7121582-.4676514,1.4943848-.4676514,2.3148193,0,3.2900391,2.6767578,5.9667969,5.9667969,5.9667969s5.9658203-2.6767578,5.9658203-5.9667969-2.6757812-5.9667969-5.9658203-5.9667969Zm0-43.284668c1.6357422,0,2.9658203,1.3310547,2.9658203,2.9667969s-1.3300781,2.9667969-2.9658203,2.9667969-2.9667969-1.3310547-2.9667969-2.9667969,1.3310547-2.9667969,2.9667969-2.9667969Zm-20.3652344-9.2207031c0-1.6357422,1.3300781-2.9663086,2.9658203-2.9663086s2.9667969,1.3305664,2.9667969,2.9663086-1.3310547,2.9667969-2.9667969,2.9667969-2.9658203-1.3310547-2.9658203-2.9667969Zm-41.6308594,0c0-1.6357422,1.3310547-2.9663086,2.9667969-2.9663086s2.9667969,1.3305664,2.9667969,2.9663086-1.3310547,2.9667969-2.9667969,2.9667969-2.9667969-1.3310547-2.9667969-2.9667969Zm-13.8818359,15.1542969c-1.6357422,0-2.9667969-1.3310547-2.9667969-2.9667969s1.3310547-2.9667969,2.9667969-2.9667969,2.9667969,1.3310547,2.9667969,2.9667969-1.3310547,2.9667969-2.9667969,2.9667969Zm0,46.284668c-1.6357422,0-2.9667969-1.3310547-2.9667969-2.9667969s1.3310547-2.9667969,2.9667969-2.9667969,2.9667969,1.3310547,2.9667969,2.9667969-1.3310547,2.9667969-2.9667969,2.9667969Zm19.8154297,9.2207031c0,1.6357422-1.3310547,2.9667969-2.9667969,2.9667969s-2.9667969-1.3310547-2.9667969-2.9667969,1.3310547-2.9667969,2.9667969-2.9667969,2.9667969,1.3310547,2.9667969,2.9667969Zm41.6298828,0c0,1.6357422-1.3310547,2.9667969-2.9667969,2.9667969s-2.9658203-1.3310547-2.9658203-2.9667969,1.3300781-2.9667969,2.9658203-2.9667969,2.9667969,1.3310547,2.9667969,2.9667969Zm14.0097656-35.6616211c-4.1993408,6.994873-15.9594727,12.1356812-30.1627197,13.4729004,4.7622681-2.6099854,7.9996338-7.6696777,7.9996338-13.4729004,0-5.8027954-3.2369385-10.8620605-7.9986572-13.47229,14.2028198,1.3373413,25.9624634,6.4779663,30.1617432,13.47229Zm-25.1630859,0c0,6.8120117-5.5419922,12.3540039-12.3535156,12.3540039s-12.3535156-5.5419922-12.3535156-12.3540039,5.5419922-12.3540039,12.3535156-12.3540039,12.3535156,5.5419922,12.3535156,12.3540039ZM47.0331123,8.5668945c0-1.6357422,1.3310547-2.9667969,2.9667969-2.9667969s2.9667969,1.3310547,2.9667969,2.9667969-1.3310547,2.9663086-2.9667969,2.9663086-2.9667969-1.3305664-2.9667969-2.9663086ZM12.4842842,49.8530273c4.1992798-6.9943237,15.9581909-12.1349487,30.1607666-13.47229-4.7617188,2.6102295-7.9986572,7.6694946-7.9986572,13.47229,0,5.8032227,3.2373657,10.862854,7.9996338,13.4729004-14.2029419-1.3372803-25.9624023-6.4780273-30.1617432-13.4729004Zm40.4824219,41.9506836c0,1.6357422-1.3310547,2.9658203-2.9667969,2.9658203s-2.9667969-1.3300781-2.9667969-2.9658203,1.3310547-2.9667969,2.9667969-2.9667969,2.9667969,1.3310547,2.9667969,2.9667969Zm34.9726562-15.5097656c-1.6357422,0-2.9667969-1.3310547-2.9667969-2.9667969s1.3310547-2.9667969,2.9667969-2.9667969,2.9658203,1.3310547,2.9658203,2.9667969-1.3300781,2.9667969-2.9658203,2.9667969Z"/><circle cx="49.9999855" cy="49.8530273" r="5.5224641" transform="translate(-15.1923535 76.9691079) rotate(-67.5000396)"/><text x="0" y="115" fill="#000000" font-size="5px" font-weight="bold" font-family="'Helvetica Neue', Helvetica, Arial-Unicode, Arial, Sans-serif">Created by Alex Muravev</text><text x="0" y="120" fill="#000000" font-size="5px" font-weight="bold" font-family="'Helvetica Neue', Helvetica, Arial-Unicode, Arial, Sans-serif">from the Noun Project</text></svg>