<svg width="24" height="24" viewBox="0 0 24 24" fill="none" xmlns="http://www.w3.org/2000/svg">
<path fill-rule="evenodd" clip-rule="evenodd" d="M12 6.75C11.9998 5.93 12.1916 5.12135 12.5602 4.38885C12.9288 3.65635 13.4638 3.02038 14.1224 2.53188C14.781 2.04339 15.5449 1.71596 16.3529 1.57584C17.1608 1.43572 17.9903 1.48681 18.775 1.725C18.899 1.76257 19.0112 1.83163 19.1005 1.92544C19.1899 2.01926 19.2535 2.13464 19.285 2.26033C19.3165 2.38602 19.3149 2.51773 19.2804 2.64263C19.2459 2.76753 19.1796 2.88135 19.088 2.973L15.768 6.292C15.831 6.767 16.044 7.226 16.409 7.591C16.774 7.956 17.233 8.169 17.709 8.231L21.027 4.912C21.1186 4.82039 21.2324 4.75409 21.3573 4.71956C21.4822 4.68503 21.614 4.68345 21.7396 4.71497C21.8653 4.7465 21.9807 4.81005 22.0745 4.89943C22.1683 4.98881 22.2374 5.10098 22.275 5.225C22.5242 6.04585 22.5685 6.91527 22.4039 7.75719C22.2394 8.59912 21.871 9.38789 21.3311 10.0545C20.7912 10.7211 20.0961 11.2453 19.3067 11.5811C18.5173 11.917 17.6577 12.0543 16.803 11.981C15.785 11.895 14.933 12.081 14.494 12.615L7.34398 21.3C7.05122 21.6538 6.68781 21.9425 6.27702 22.1477C5.86623 22.3529 5.41712 22.4701 4.95844 22.4917C4.49976 22.5133 4.04161 22.4389 3.61335 22.2732C3.18508 22.1076 2.79613 21.8543 2.4714 21.5296C2.14667 21.205 1.89331 20.8161 1.72756 20.3878C1.5618 19.9596 1.48729 19.5015 1.50881 19.0428C1.53033 18.5841 1.64739 18.135 1.85251 17.7241C2.05763 17.3133 2.34628 16.9498 2.69998 16.657L11.384 9.50599C11.917 9.06599 12.104 8.215 12.018 7.197C12.0057 7.04831 11.9997 6.89918 12 6.75ZM4.11698 19.125C4.11698 18.9261 4.19599 18.7353 4.33665 18.5947C4.4773 18.454 4.66806 18.375 4.86698 18.375H4.87498C5.07389 18.375 5.26466 18.454 5.40531 18.5947C5.54596 18.7353 5.62498 18.9261 5.62498 19.125V19.133C5.62498 19.3319 5.54596 19.5227 5.40531 19.6633C5.26466 19.804 5.07389 19.883 4.87498 19.883H4.86698C4.66806 19.883 4.4773 19.804 4.33665 19.6633C4.19599 19.5227 4.11698 19.3319 4.11698 19.133V19.125Z" fill="url(#paint0_linear_6_2)"/>
<path d="M10.076 8.63999L7.87497 6.43999V4.87399C7.87496 4.74451 7.84143 4.61724 7.77765 4.50456C7.71386 4.39188 7.62199 4.29763 7.51097 4.23099L3.76097 1.98099C3.61754 1.89502 3.4495 1.85944 3.28353 1.87991C3.11757 1.90039 2.9632 1.97574 2.84497 2.09399L2.09497 2.84399C1.97671 2.96223 1.90136 3.11659 1.88089 3.28255C1.86041 3.44852 1.89599 3.61657 1.98197 3.75999L4.23197 7.50999C4.29861 7.62101 4.39286 7.71288 4.50554 7.77667C4.61822 7.84046 4.74549 7.87399 4.87497 7.87399H6.43897L8.50097 9.93599L10.076 8.63899V8.63999Z" fill="url(#paint1_linear_6_2)"/>
<path fill-rule="evenodd" clip-rule="evenodd" d="M12.556 17.329L16.739 21.511C17.0524 21.8244 17.4245 22.073 17.834 22.2426C18.2434 22.4122 18.6823 22.4995 19.1255 22.4995C19.5687 22.4995 20.0076 22.4122 20.4171 22.2426C20.8266 22.073 21.1986 21.8244 21.512 21.511C21.8254 21.1976 22.074 20.8255 22.2436 20.4161C22.4133 20.0066 22.5006 19.5677 22.5006 19.1245C22.5006 18.6813 22.4133 18.2424 22.2436 17.8329C22.074 17.4235 21.8254 17.0514 21.512 16.738L18.206 13.433C17.6993 13.5048 17.186 13.5193 16.676 13.476C16.282 13.442 15.994 13.47 15.809 13.518C15.7505 13.5304 15.6942 13.5516 15.642 13.581L12.556 17.329ZM15.97 15.969C16.1107 15.8285 16.3013 15.7497 16.5 15.7497C16.6988 15.7497 16.8894 15.8285 17.03 15.969L18.905 17.845C18.9787 17.9137 19.0378 17.9965 19.0788 18.0885C19.1198 18.1805 19.1418 18.2798 19.1436 18.3805C19.1454 18.4812 19.1269 18.5812 19.0892 18.6746C19.0514 18.768 18.9953 18.8528 18.9241 18.924C18.8528 18.9953 18.768 19.0514 18.6746 19.0891C18.5812 19.1268 18.4812 19.1454 18.3805 19.1436C18.2798 19.1418 18.1805 19.1198 18.0885 19.0788C17.9965 19.0378 17.9137 18.9787 17.845 18.905L15.97 17.03C15.8296 16.8894 15.7507 16.6987 15.7507 16.5C15.7507 16.3012 15.8296 16.1106 15.97 15.97V15.969Z" fill="url(#paint2_linear_6_2)"/>
<defs>
<linearGradient id="paint0_linear_6_2" x1="12.0033" y1="1.49863" x2="12.0033" y2="22.4953" gradientUnits="userSpaceOnUse">
<stop stop-color="#62FF00"/>
<stop offset="1" stop-color="#3B9900"/>
</linearGradient>
<linearGradient id="paint1_linear_6_2" x1="5.97561" y1="1.87427" x2="5.97561" y2="9.93599" gradientUnits="userSpaceOnUse">
<stop stop-color="#44FF00"/>
<stop offset="0.485" stop-color="#39D700"/>
<stop offset="0.4851" stop-color="#39D700"/>
<stop offset="1" stop-color="#299900"/>
</linearGradient>
<linearGradient id="paint2_linear_6_2" x1="17.5283" y1="13.433" x2="17.5283" y2="22.4995" gradientUnits="userSpaceOnUse">
<stop stop-color="#44FF00"/>
<stop offset="0.485" stop-color="#39D700"/>
<stop offset="0.4851" stop-color="#39D700"/>
<stop offset="1" stop-color="#299900"/>
</linearGradient>
</defs>
</svg>
