<svg width="21" height="20" viewBox="0 0 21 20" fill="none" xmlns="http://www.w3.org/2000/svg">
<path d="M1.478 0.404C1.34804 0.366244 1.21028 0.364359 1.07933 0.398543C0.948379 0.432727 0.829121 0.501708 0.734195 0.598171C0.639269 0.694635 0.572213 0.814987 0.540138 0.946468C0.508062 1.07795 0.51216 1.21566 0.551999 1.345L2.984 9.25H11.5C11.6989 9.25 11.8897 9.32902 12.0303 9.46967C12.171 9.61032 12.25 9.80109 12.25 10C12.25 10.1989 12.171 10.3897 12.0303 10.5303C11.8897 10.671 11.6989 10.75 11.5 10.75H2.984L0.551999 18.655C0.512396 18.7843 0.508477 18.9219 0.540658 19.0532C0.57284 19.1845 0.639924 19.3047 0.734812 19.401C0.829699 19.4973 0.948862 19.5662 1.07969 19.6004C1.21051 19.6345 1.34814 19.6327 1.478 19.595C8.09297 17.6713 14.3309 14.6323 19.923 10.609C20.0196 10.5395 20.0983 10.4481 20.1526 10.3422C20.2069 10.2363 20.2353 10.119 20.2353 10C20.2353 9.881 20.2069 9.7637 20.1526 9.65781C20.0983 9.55191 20.0196 9.46046 19.923 9.391C14.331 5.3673 8.09305 2.32796 1.478 0.404Z" fill="url(#paint0_linear_7_3)"/>
<defs>
<linearGradient id="paint0_linear_7_3" x1="4.5" y1="3" x2="10.377" y2="19.6247" gradientUnits="userSpaceOnUse">
<stop stop-color="#0B9604"/>
<stop offset="1" stop-color="#043001"/>
</linearGradient>
</defs>
</svg>
