<svg width="21" height="20" viewBox="0 0 21 20" fill="none" xmlns="http://www.w3.org/2000/svg">
<path d="M1.478 0.403983C1.34804 0.366227 1.21028 0.364341 1.07933 0.398526C0.948379 0.43271 0.829121 0.501691 0.734195 0.598154C0.639269 0.694618 0.572213 0.81497 0.540138 0.946451C0.508062 1.07793 0.51216 1.21564 0.551999 1.34498L2.984 9.24998H11.5C11.6989 9.24998 11.8897 9.329 12.0303 9.46965C12.171 9.61031 12.25 9.80107 12.25 9.99998C12.25 10.1989 12.171 10.3897 12.0303 10.5303C11.8897 10.671 11.6989 10.75 11.5 10.75H2.984L0.551999 18.655C0.512396 18.7843 0.508477 18.9218 0.540658 19.0532C0.57284 19.1845 0.639924 19.3047 0.734812 19.401C0.829699 19.4973 0.948862 19.5662 1.07969 19.6003C1.21051 19.6345 1.34814 19.6326 1.478 19.595C8.09297 17.6713 14.3309 14.6323 19.923 10.609C20.0196 10.5395 20.0983 10.4481 20.1526 10.3422C20.2069 10.2363 20.2353 10.119 20.2353 9.99998C20.2353 9.88098 20.2069 9.76368 20.1526 9.65779C20.0983 9.55189 20.0196 9.46044 19.923 9.39098C14.331 5.36728 8.09305 2.32794 1.478 0.403983Z" fill="#8E8E8E"/>
</svg>
